<svg xmlns="http://www.w3.org/2000/svg" width="20.012" height="20.959" viewBox="0 0 20.012 20.959">
  <g id="np_time_3202652_000000" transform="translate(-4.598 -2.5)">
    <path id="Path_121" data-name="Path 121" d="M22.072,12.5H21.52V13.58a2.1,2.1,0,0,1-2.1,2.1h-1.28a2.11,2.11,0,0,1-2.1-2.1V12.5H13.181V13.58a2.11,2.11,0,0,1-2.1,2.1H9.8a2.11,2.11,0,0,1-2.1-2.1V12.5h-.4A2.712,2.712,0,0,0,4.6,15.213V28.538a2.712,2.712,0,0,0,2.714,2.714H21.9a2.712,2.712,0,0,0,2.714-2.714V15.059a2.556,2.556,0,0,0-2.537-2.56Zm.662,16.039a.838.838,0,0,1-.839.839H7.311a.838.838,0,0,1-.839-.839V17.861h16.26Z" transform="translate(0 -7.793)" fill="#1c5783"/>
    <path id="Path_122" data-name="Path 122" d="M21.03,45.795h2.6a.339.339,0,0,0,.331-.331V44.03a.339.339,0,0,0-.331-.331h-2.6a.339.339,0,0,0-.331.331v1.434a.356.356,0,0,0,.331.331Z" transform="translate(-12.549 -32.11)" fill="#1c5783"/>
    <path id="Path_123" data-name="Path 123" d="M21.03,74.6h2.6a.339.339,0,0,0,.331-.331V72.831a.339.339,0,0,0-.331-.331h-2.6a.339.339,0,0,0-.331.331v1.434a.339.339,0,0,0,.331.331Z" transform="translate(-12.549 -54.556)" fill="#1c5783"/>
    <path id="Path_124" data-name="Path 124" d="M64.831,45.795h2.581a.339.339,0,0,0,.331-.331V44.03a.339.339,0,0,0-.331-.331H64.831a.339.339,0,0,0-.331.331v1.434A.356.356,0,0,0,64.831,45.795Z" transform="translate(-46.686 -32.11)" fill="#1c5783"/>
    <path id="Path_125" data-name="Path 125" d="M64.831,74.6h2.581a.339.339,0,0,0,.331-.331V72.831a.339.339,0,0,0-.331-.331H64.831a.339.339,0,0,0-.331.331v1.434A.339.339,0,0,0,64.831,74.6Z" transform="translate(-46.686 -54.556)" fill="#1c5783"/>
    <path id="Path_126" data-name="Path 126" d="M42.933,45.795h2.581a.339.339,0,0,0,.331-.331V44.03a.339.339,0,0,0-.331-.331H42.933a.339.339,0,0,0-.331.331v1.434A.355.355,0,0,0,42.933,45.795Z" transform="translate(-29.62 -32.11)" fill="#1c5783"/>
    <path id="Path_127" data-name="Path 127" d="M42.933,74.6h2.581a.339.339,0,0,0,.331-.331V72.831a.339.339,0,0,0-.331-.331H42.933a.339.339,0,0,0-.331.331v1.434A.339.339,0,0,0,42.933,74.6Z" transform="translate(-29.62 -54.556)" fill="#1c5783"/>
    <path id="Path_128" data-name="Path 128" d="M21.03,60.2h2.6a.339.339,0,0,0,.331-.331V58.433a.339.339,0,0,0-.331-.331h-2.6a.339.339,0,0,0-.331.331v1.434a.339.339,0,0,0,.331.331Z" transform="translate(-12.549 -43.335)" fill="#1c5783"/>
    <path id="Path_129" data-name="Path 129" d="M64.831,60.2h2.581a.339.339,0,0,0,.331-.331V58.433a.339.339,0,0,0-.331-.331H64.831a.339.339,0,0,0-.331.331v1.434A.339.339,0,0,0,64.831,60.2Z" transform="translate(-46.686 -43.335)" fill="#1c5783"/>
    <path id="Path_130" data-name="Path 130" d="M42.933,60.2h2.581a.339.339,0,0,0,.331-.331V58.433a.339.339,0,0,0-.331-.331H42.933a.339.339,0,0,0-.331.331v1.434A.339.339,0,0,0,42.933,60.2Z" transform="translate(-29.62 -43.335)" fill="#1c5783"/>
    <path id="Path_131" data-name="Path 131" d="M25.782,6.471h1.28a.688.688,0,0,0,.684-.684v-2.6a.688.688,0,0,0-.684-.684h-1.28a.688.688,0,0,0-.684.684V5.809a.684.684,0,0,0,.684.662Z" transform="translate(-15.977)" fill="#1c5783"/>
    <path id="Path_132" data-name="Path 132" d="M63.583,6.471h1.28a.688.688,0,0,0,.684-.684v-2.6a.688.688,0,0,0-.684-.684H63.583a.688.688,0,0,0-.684.684V5.809a.683.683,0,0,0,.684.662Z" transform="translate(-45.438)" fill="#1c5783"/>
  </g>
</svg>
